PathFileType	4	(X/Y/Z)	E:\Qualisys_Data\Carbon_Farble_Plate\Data\Amateur_Runner\S14\T1\S14T1V11_c3d.trc
DataRate	CameraRate	NumFrames	NumMarkers	Units	OrigDataRate	OrigDataStartFrame	OrigNumFrames
200.000000	200.000000	4	39	mm	200.000000	43	349
Frame#	Time	LSHO			RSHO			LICST			RICST			LASIS			LHEEL			RASIS			LTROC			RTROC			SACR			LTH1			LSK4			LTH2			LTH3			RHM5			LSK2			LTH4			RTH1			LTOE			RTH2			RTH3			RTH4			LLEP			RLEP			LSK1			LSK3			RSK1			LHM5			RSK2			LFT1			RSK3			RSK4			LLME			RLME			RTOE			RHEEL			RFT1			RFT2			LFT2			
		X1	Y1	Z1	X2	Y2	Z2	X3	Y3	Z3	X4	Y4	Z4	X5	Y5	Z5	X6	Y6	Z6	X7	Y7	Z7	X8	Y8	Z8	X9	Y9	Z9	X10	Y10	Z10	X11	Y11	Z11	X12	Y12	Z12	X13	Y13	Z13	X14	Y14	Z14	X15	Y15	Z15	X16	Y16	Z16	X17	Y17	Z17	X18	Y18	Z18	X19	Y19	Z19	X20	Y20	Z20	X21	Y21	Z21	X22	Y22	Z22	X23	Y23	Z23	X24	Y24	Z24	X25	Y25	Z25	X26	Y26	Z26	X27	Y27	Z27	X28	Y28	Z28	X29	Y29	Z29	X30	Y30	Z30	X31	Y31	Z31	X32	Y32	Z32	X33	Y33	Z33	X34	Y34	Z34	X35	Y35	Z35	X36	Y36	Z36	X37	Y37	Z37	X38	Y38	Z38	X39	Y39	Z39	

44	0.215	-1895.722778320312	1382.030151367188	-505.4292297363281	-1907.887451171875	1367.874267578125	-194.0187530517578	-1974.59619140625	932.4677124023438	-498.2959899902344	-1955.30517578125	948.1253051757812	-219.9493408203125	-1935.061889648438	882.0590209960938	-469.0238037109375	-2381.176513671875	453.2412109375	-384.5325012207031	-1926.42529296875	913.5859375	-238.7260437011719	-2080.71484375	806.3441772460938	-500.5635986328125	-2071.765380859375	857.95263671875	-189.6967620849609	-2106.05712890625	948.1028442382812	-365.3481750488281	-1971.832275390625	593.4495239257812	-518.4159545898438	-2191.220458984375	452.086669921875	-473.1780700683594	-2047.891845703125	585.1025390625	-496.7021179199219	-1952.133178710938	495.1399230957031	-503.6301574707031	-1880.534423828125	74.65222930908203	-222.9649047851562	-2096.2353515625	464.0785522460938	-498.0780944824219	-2032.320434570312	489.0281066894531	-482.8689880371094	-1858.850463867188	661.557373046875	-182.7107086181641	-2388.264404296875	194.9306488037109	-427.0408325195312	-1931.71923828125	636.185791015625	-178.2658386230469	-1822.115356445312	571.9367065429688	-216.1352996826172	-1899.1982421875	541.2158203125	-199.6325531005859	-1990.462646484375	435.5611877441406	-499.6137390136719	-1855.272827148438	480.7294616699219	-211.7999267578125	-2083.1142578125	383.1469421386719	-491.005615234375	-2183.2919921875	372.4896240234375	-470.2898864746094	-1858.5458984375	354.6944885253906	-215.3362121582031	-2406.11962890625	266.82421875	-480.3102111816406	-1939.128784179688	380.1230773925781	-204.8723754882812	-2403.627197265625	435.8941650390625	-354.0868530273438	-1898.280151367188	260.8762817382812	-232.7268371582031	-1970.629760742188	290.7548522949219	-222.5715026855469	-2354.057373046875	400.3171691894531	-447.4664001464844	-2003.890991210938	119.5233840942383	-250.4388885498047	-1807.316284179688	76.42369079589844	-286.3020935058594	-2065.28564453125	100.8926315307617	-306.654052734375	-2054.149169921875	67.92817687988281	-332.1791687011719	-2066.510498046875	78.3122787475586	-275.8885498046875	-2408.859619140625	449.7904663085938	-408.9652099609375
45	0.22	-1881.998901367188	1380.237060546875	-505.8040161132812	-1890.202758789062	1366.074096679688	-193.9125823974609	-1960.712280273438	931.0841674804688	-498.1398620605469	-1940.821044921875	946.0523071289062	-218.6757049560547	-1921.24267578125	880.6504516601562	-469.7915649414062	-2356.036376953125	452.8931274414062	-385.3960266113281	-1911.155395507812	912.0687255859376	-238.8733367919922	-2066.529296875	804.470703125	-498.2383728027344	-2056.404052734375	856.561767578125	-188.7033233642578	-2090.696044921875	947.0667724609376	-363.2969360351562	-1950.66552734375	593.4326171875	-518.2017822265625	-2164.9990234375	451.9999389648438	-472.6958923339844	-2020.446533203125	579.8093872070312	-491.42529296875	-1928.693969726562	495.9531555175781	-503.8085327148438	-1880.570434570312	74.50669860839844	-223.0084075927734	-2069.91455078125	463.5316162109375	-497.426513671875	-2009.430053710938	488.3224792480469	-482.627685546875	-1847.807006835938	656.7291259765625	-182.5578918457031	-2357.3046875	194.247802734375	-424.0401000976562	-1921.385986328125	632.474609375	-179.0241241455078	-1813.057495117188	566.5872802734375	-215.0242156982422	-1889.58056640625	536.6187133789062	-199.6516723632812	-1963.847412109375	434.7033081054688	-498.4637756347656	-1849.111572265625	475.7737426757812	-212.2479400634766	-2057.038818359375	383.0343627929688	-490.2130432128906	-2156.5419921875	371.8233032226562	-469.6207580566406	-1852.371948242188	350.5211791992188	-215.3547973632812	-2376.803466796875	264.4255065917969	-479.4548950195312	-1932.8955078125	377.9557189941406	-205.2590942382812	-2378.832275390625	435.1278076171875	-355.7144775390625	-1893.917846679688	258.3023071289062	-233.7466735839844	-1965.83251953125	288.6021728515625	-222.3891754150391	-2327.081787109375	399.126708984375	-447.1142883300781	-2003.751953125	119.3669891357422	-251.1643676757812	-1807.9287109375	76.05012512207031	-286.9486389160156	-2065.0732421875	101.0662155151367	-306.7307434082031	-2054.203125	67.8573989868164	-332.4962463378906	-2066.5849609375	78.43161010742188	-275.9433288574219	-2383.865234375	448.9229736328125	-410.7537841796875
46	0.225	-1868.187133789062	1378.608276367188	-506.2685546875	-1872.418701171875	1364.409912109375	-194.2160034179688	-1947.262451171875	930.1651000976562	-498.0625	-1928.33740234375	944.3539428710938	-217.4801788330078	-1907.350219726562	880.1280517578125	-470.7454528808594	-2331.893310546875	451.1986694335938	-386.21337890625	-1897.40771484375	910.3644409179688	-238.3406372070312	-2052.236572265625	802.7747802734375	-496.3634033203125	-2039.470336914062	855.2744140625	-186.98486328125	-2076.575439453125	946.80712890625	-361.9497985839844	-1929.237548828125	593.4581298828125	-517.5665893554688	-2138.883544921875	451.4838562011719	-472.8075561523438	-1999.377197265625	578.6751098632812	-490.7951354980469	-1904.630737304688	496.5310974121094	-503.3725280761719	-1880.926635742188	74.04552459716797	-223.2424774169922	-2043.830200195312	463.6351623535156	-496.8102722167969	-1984.079467773438	486.654052734375	-481.0638427734375	-1835.885009765625	651.92529296875	-181.7637481689453	-2326.992431640625	193.2922210693359	-423.1300354003906	-1911.005859375	630.0147705078125	-179.5168304443359	-1803.808471679688	560.4722900390625	-214.9530334472656	-1882.41064453125	533.2669067382812	-200.2068481445312	-1938.750854492188	435.048828125	-498.1428527832031	-1842.251953125	471.099365234375	-211.8662719726562	-2030.654174804688	382.6242370605469	-489.4445190429688	-2130.1767578125	371.7039489746094	-468.7608947753906	-1847.717529296875	346.8830871582031	-215.3710479736328	-2347.172607421875	262.1120300292969	-478.5663452148438	-1927.485107421875	375.9213562011719	-205.6749420166016	-2354.522705078125	433.4366760253906	-357.0106506347656	-1890.19287109375	254.829345703125	-233.7586975097656	-1962.092407226562	286.6716918945312	-222.6342163085938	-2301.04541015625	398.3590393066406	-447.1943054199219	-2003.16748046875	119.2494201660156	-251.1091918945312	-1808.2236328125	75.5696029663086	-287.4960327148438	-2063.359130859375	100.7526321411133	-306.2229919433594	-2054.134765625	67.83786010742188	-332.4708862304688	-2066.235107421875	78.72773742675781	-275.8937683105469	-2358.017822265625	446.4521179199219	-411.4874877929688
47	0.23	-1855.378173828125	1377.63134765625	-506.7183532714844	-1854.414306640625	1363.65771484375	-194.1919555664062	-1935.65966796875	929.2249145507812	-496.7472839355469	-1910.66064453125	943.5928344726562	-217.2986602783203	-1893.293212890625	879.6776123046875	-471.0783996582031	-2307.63232421875	449.8155822753906	-386.8681030273438	-1884.635009765625	908.3426513671876	-237.4325714111328	-2037.884521484375	801.8387451171875	-494.5507202148438	-2024.150756835938	854.8823852539062	-186.0917816162109	-2061.717529296875	946.2882690429688	-360.2227478027344	-1911.065185546875	595.4298095703125	-519.4828491210938	-2113.069580078125	451.314453125	-472.3129577636719	-1982.15283203125	580.1663818359375	-492.7993469238281	-1881.760009765625	498.9065246582031	-503.4995422363281	-1880.856079101562	73.55720520019531	-223.1262054443359	-2017.3671875	463.7810974121094	-496.1340637207031	-1961.02978515625	486.9384155273438	-480.8798522949219	-1825.173217773438	646.9432983398438	-181.4842681884766	-2296.94091796875	191.2265167236328	-421.5816040039062	-1899.026489257812	628.462158203125	-177.7018890380859	-1794.781982421875	554.9790649414062	-214.0190734863281	-1873.8349609375	529.8302612304688	-199.9181365966797	-1913.303466796875	436.2817993164062	-497.4972229003906	-1836.785034179688	467.8013916015625	-212.6999206542969	-2004.194946289062	383.0994567871094	-488.7060241699219	-2103.738525390625	371.7088317871094	-468.8828735351562	-1841.778686523438	344.223388671875	-215.4422302246094	-2317.051513671875	259.1321105957031	-477.6878051757812	-1920.885131835938	373.9547424316406	-205.2977447509766	-2328.797607421875	431.5836181640625	-357.6293334960938	-1886.401489257812	252.920654296875	-234.0842895507812	-1956.637817382812	286.2322692871094	-221.6203002929688	-2274.056640625	396.1270446777344	-447.5220642089844	-2003.657470703125	119.5312347412109	-252.505859375	-1807.996704101562	74.80488586425781	-287.6420593261719	-2063.403076171875	101.275749206543	-305.5593566894531	-2053.96484375	68.7821273803711	-332.4937744140625	-2065.97216796875	79.06822204589844	-275.7384643554688	-2333.810791015625	443.49462890625	-410.8799438476562
